<?xml version="1.0" encoding="utf-8"?>
<!-- Generator: Adobe Illustrator 24.0.0, SVG Export Plug-In . SVG Version: 6.00 Build 0)  -->
<svg version="1.1" id="Calque_1" xmlns="http://www.w3.org/2000/svg" xmlns:xlink="http://www.w3.org/1999/xlink" x="0px" y="0px"
	 viewBox="0 0 289 289" style="enable-background:new 0 0 289 289;" xml:space="preserve">
<style type="text/css">
	.st0{fill:#EC5564;}
	.st1{fill:#965353;}
	.st2{fill:#F4BE8E;}
	.st3{fill:#9ED36A;}
	.st4{fill:#FECD57;}
	.st5{fill:#F5BA45;}
	.st6{fill:#EAAD7A;}
</style>
<g>
	<path class="st0" d="M157,192.7c0,3.3-2.7,6-6,6H24.6c-3.3,0-6-2.7-6-6v-12c0-3.3,2.7-6,6-6H151c3.3,0,6,2.7,6,6V192.7z"/>
	<path class="st1" d="M276.5,212.4c-7.9-2.9-15-7.7-20.6-13.8H24.6c-6.6,0-12,5.4-12,12c0,6.6,5.4,12,12,12h238.6
		C267.1,218.7,271.6,215.2,276.5,212.4z"/>
	<path class="st2" d="M270.8,114.2c-14.8-10.8-24.4-28.3-24.4-48c0-3.5,0.3-6.8,0.9-10.1c-23.7-16.1-55.4-25.9-90.4-25.9
		c-73.1,0-132.4,43.1-132.4,96.3h230.6C259.5,121.5,264.8,117.3,270.8,114.2z"/>
	<path class="st3" d="M250.2,133.2l-15.6-6.4c0,0,0,0-0.1,0l0,0c-0.7-0.3-1.5-0.5-2.3-0.5c-0.8,0-1.6,0.2-2.3,0.5l0,0c0,0,0,0-0.1,0
		l-27.7,11.4l-27.7-11.4c0,0,0,0,0,0l0,0c-0.7-0.3-1.5-0.5-2.3-0.5c-0.8,0-1.6,0.2-2.3,0.5l0,0c0,0,0,0,0,0L142,138.2l-27.7-11.4
		c0,0,0,0-0.1,0l0,0c-0.7-0.3-1.5-0.5-2.3-0.5c-0.8,0-1.6,0.2-2.3,0.5l0,0c0,0,0,0-0.1,0l-27.7,11.4l-27.7-11.4c0,0,0,0,0,0l0,0
		c-0.7-0.3-1.5-0.5-2.3-0.5c-0.8,0-1.6,0.2-2.3,0.5l0,0c0,0,0,0,0,0l-30,12.4c-2.2,0.9-3.7,3.1-3.7,5.6c0,3.3,2.7,6,6,6
		c0.8,0,1.6-0.2,2.3-0.5l0,0c0,0,0,0,0.1,0l27.7-11.4l27.7,11.4c0,0,0,0,0.1,0l0,0c0.7,0.3,1.5,0.5,2.3,0.5s1.6-0.2,2.3-0.5l0,0
		c0,0,0,0,0.1,0l27.7-11.4l27.7,11.4c0,0,0,0,0.1,0l0,0c0.7,0.3,1.5,0.5,2.3,0.5s1.6-0.2,2.3-0.5l0,0c0,0,0,0,0.1,0l27.7-11.4
		l27.7,11.4c0,0,0,0,0.1,0l0,0c0.7,0.3,1.5,0.5,2.3,0.5c0.8,0,1.6-0.2,2.3-0.5l0,0c0,0,0,0,0.1,0l27.7-11.4l12.6,5.2
		C246.2,140.1,248,136.5,250.2,133.2z"/>
	<path class="st2" d="M263.2,222.7H24.6v30.1c0,3.3,2.7,6,6,6h215.9C247.8,244.8,253.9,232.2,263.2,222.7z"/>
	<path class="st1" d="M241.6,162.2c0-4,0.5-7.9,1.3-11.7H24.5c-6.6,0-12,5.4-12,12c0,6.6,5.4,12,12,12h218.6
		C242.1,170.6,241.6,166.5,241.6,162.2z"/>
	<path class="st0" d="M243.1,174.6h-80c-3.3,0-6,2.7-6,6v12c0,3.3,2.7,6,6,6h92.9C249.7,192,245.2,183.8,243.1,174.6z"/>
	<path class="st4" d="M243.1,174.6H36.7L157,246.8l92.9-55.9C246.8,186,244.5,180.5,243.1,174.6z"/>
	<path class="st5" d="M132.8,198.7c0,3.3-2.7,6-6,6c-3.3,0-6-2.7-6-6c0-3.3,2.7-6,6-6C130.1,192.7,132.8,195.3,132.8,198.7z"/>
	<path class="st5" d="M187.1,204.7c0,3.3-2.7,6-6,6c-3.3,0-6-2.7-6-6c0-3.3,2.7-6,6-6C184.4,198.7,187.1,201.4,187.1,204.7z"/>
	<path class="st6" d="M114.9,66.3c0,3.3-2.7,6-6,6c-3.3,0-6-2.7-6-6c0-3.3,2.7-6,6-6C112.2,60.3,114.9,62.9,114.9,66.3z"/>
	<path class="st6" d="M163,66.3c0,3.3-2.7,6-6,6c-3.3,0-6-2.7-6-6c0-3.3,2.7-6,6-6C160.3,60.3,163,62.9,163,66.3z"/>
	<path class="st6" d="M211.2,66.3c0,3.3-2.7,6-6,6c-3.3,0-6-2.7-6-6c0-3.3,2.7-6,6-6C208.5,60.3,211.2,62.9,211.2,66.3z"/>
	<path class="st6" d="M90.7,96.4c0,3.3-2.7,6-6,6c-3.3,0-6-2.7-6-6c0-3.3,2.7-6,6-6C88,90.3,90.7,93,90.7,96.4z"/>
	<path class="st6" d="M138.8,96.4c0,3.3-2.7,6-6,6c-3.3,0-6-2.7-6-6c0-3.3,2.7-6,6-6C136.1,90.3,138.8,93,138.8,96.4z"/>
	<path class="st6" d="M187,96.4c0,3.3-2.7,6-6,6c-3.3,0-6-2.7-6-6c0-3.3,2.7-6,6-6C184.3,90.3,187,93,187,96.4z"/>
	<path class="st6" d="M235.3,96.4c0,3.3-2.7,6-6,6c-3.3,0-6-2.7-6-6c0-3.3,2.7-6,6-6C232.6,90.3,235.3,93,235.3,96.4z"/>
</g>
</svg>
