<svg width="762" height="289" viewBox="0 0 762 289" fill="none" xmlns="http://www.w3.org/2000/svg">
<path d="M407.48 126.28H398.9C396.407 126.28 394.353 127.087 392.74 128.7C391.273 130.167 390.54 132.147 390.54 134.64V199.54C390.54 204.673 392.667 207.24 396.92 207.24C399.12 207.24 401.173 206.433 403.08 204.82C405.133 203.06 406.6 201.227 407.48 199.32V126.28ZM407.48 83.6C407.48 79.2 406.82 74.7267 405.5 70.18C409.9 67.8333 414.593 66.66 419.58 66.66C422.513 66.66 423.98 67.76 423.98 69.96V201.74C423.98 204.82 424.493 207.02 425.52 208.34C426.693 209.66 428.82 210.32 431.9 210.32C432.047 214.133 431.02 217.067 428.82 219.12C426.767 221.173 423.76 222.2 419.8 222.2C413.933 222.2 410.193 219.927 408.58 215.38C404.033 219.927 398.9 222.2 393.18 222.2C387.46 222.2 382.84 220.293 379.32 216.48C375.8 212.52 374.04 206.947 374.04 199.76V135.52C374.04 128.187 376.313 122.467 380.86 118.36C385.407 114.253 391.567 112.2 399.34 112.2H407.48V83.6ZM462.647 179.74C457.807 182.967 455.387 188.393 455.387 196.02C455.387 203.5 457.66 207.24 462.207 207.24C466.9 207.24 470.567 204.6 473.207 199.32V172.7L462.647 179.74ZM465.067 110C481.493 110 489.707 117.26 489.707 131.78V201.74C489.707 204.82 490.22 207.02 491.247 208.34C492.42 209.66 494.547 210.32 497.627 210.32C497.773 214.133 496.747 217.067 494.547 219.12C492.493 221.173 489.487 222.2 485.527 222.2C479.367 222.2 475.627 219.927 474.307 215.38C469.76 219.927 464.407 222.2 458.247 222.2C452.087 222.2 447.173 219.853 443.507 215.16C439.84 210.467 438.007 204.16 438.007 196.24C438.007 184.213 443.067 175.12 453.187 168.96L473.207 157.08V133.32C473.207 127.16 470.273 124.08 464.407 124.08C458.687 124.08 455.827 127.527 455.827 134.42V141.68L456.487 152.02C454.58 152.46 452.6 152.68 450.547 152.68C448.64 152.68 446.807 152.387 445.047 151.8C441.527 150.92 439.767 149.233 439.767 146.74V128.7C439.767 122.833 442.04 118.287 446.587 115.06C451.28 111.687 457.44 110 465.067 110ZM524.664 205.92H533.244C535.738 205.92 537.718 205.187 539.184 203.72C540.798 202.107 541.604 200.053 541.604 197.56V132.66C541.604 127.527 539.478 124.96 535.224 124.96C533.024 124.96 530.898 125.84 528.844 127.6C526.938 129.213 525.544 130.973 524.664 132.88V205.92ZM524.664 220V237.6L526.204 252.12C522.244 253.733 517.698 254.54 512.564 254.54C509.631 254.54 508.164 253.44 508.164 251.24V130.46C508.164 127.38 507.578 125.18 506.404 123.86C505.378 122.54 503.324 121.88 500.244 121.88C500.098 118.067 501.051 115.133 503.104 113.08C505.304 111.027 508.751 110 513.444 110C518.284 110 521.658 112.273 523.564 116.82C528.111 112.273 533.244 110 538.964 110C544.684 110 549.304 111.98 552.824 115.94C556.344 119.753 558.104 125.253 558.104 132.44V196.68C558.104 204.013 555.831 209.733 551.284 213.84C546.738 217.947 540.578 220 532.804 220H524.664ZM572.126 199.76V133.32C572.126 125.987 574.399 120.267 578.946 116.16C583.493 112.053 589.653 110 597.426 110C605.199 110 611.213 111.907 615.466 115.72C619.866 119.533 622.066 125.107 622.066 132.44V198.88C622.066 206.213 619.719 211.933 615.026 216.04C610.479 220.147 604.319 222.2 596.546 222.2C588.773 222.2 582.759 220.293 578.506 216.48C574.253 212.667 572.126 207.093 572.126 199.76ZM588.626 132.44V199.76C588.626 202.253 589.433 204.38 591.046 206.14C592.659 207.753 594.639 208.56 596.986 208.56C599.479 208.56 601.533 207.753 603.146 206.14C604.759 204.38 605.566 202.253 605.566 199.76V132.44C605.566 129.947 604.759 127.893 603.146 126.28C601.533 124.52 599.479 123.64 596.986 123.64C594.639 123.64 592.659 124.52 591.046 126.28C589.433 127.893 588.626 129.947 588.626 132.44ZM670.469 130.24C670.469 124.667 669.956 118.653 668.929 112.2C673.329 111.613 678.096 111.32 683.229 111.32C685.723 111.32 686.969 112.42 686.969 114.62V154.66C686.969 161.407 684.769 166.76 680.369 170.72C684.769 174.387 686.969 179.74 686.969 186.78V201.74C686.969 204.82 687.483 207.02 688.509 208.34C689.683 209.66 691.809 210.32 694.889 210.32C695.036 213.987 693.936 216.92 691.589 219.12C689.389 221.173 686.236 222.2 682.129 222.2C678.023 222.2 675.016 221.027 673.109 218.68C671.349 216.333 670.469 212.447 670.469 207.02V186.56C670.469 183.92 669.589 181.793 667.829 180.18C666.216 178.567 664.163 177.76 661.669 177.76H653.529V201.96C653.529 209 654.043 214.867 655.069 219.56C650.669 220.44 645.903 220.88 640.769 220.88C638.276 220.88 637.029 219.78 637.029 217.58V83.6C637.029 79.2 636.369 74.7267 635.049 70.18C639.449 67.8333 644.143 66.66 649.129 66.66C652.063 66.66 653.529 67.76 653.529 69.96V164.56H662.109C664.309 164.56 666.216 163.753 667.829 162.14C669.589 160.38 670.469 158.253 670.469 155.76V130.24ZM725.615 179.74C720.775 182.967 718.355 188.393 718.355 196.02C718.355 203.5 720.629 207.24 725.175 207.24C729.869 207.24 733.535 204.6 736.175 199.32V172.7L725.615 179.74ZM728.035 110C744.462 110 752.675 117.26 752.675 131.78V201.74C752.675 204.82 753.189 207.02 754.215 208.34C755.389 209.66 757.515 210.32 760.595 210.32C760.742 214.133 759.715 217.067 757.515 219.12C755.462 221.173 752.455 222.2 748.495 222.2C742.335 222.2 738.595 219.927 737.275 215.38C732.729 219.927 727.375 222.2 721.215 222.2C715.055 222.2 710.142 219.853 706.475 215.16C702.809 210.467 700.975 204.16 700.975 196.24C700.975 184.213 706.035 175.12 716.155 168.96L736.175 157.08V133.32C736.175 127.16 733.242 124.08 727.375 124.08C721.655 124.08 718.795 127.527 718.795 134.42V141.68L719.455 152.02C717.549 152.46 715.569 152.68 713.515 152.68C711.609 152.68 709.775 152.387 708.015 151.8C704.495 150.92 702.735 149.233 702.735 146.74V128.7C702.735 122.833 705.009 118.287 709.555 115.06C714.249 111.687 720.409 110 728.035 110Z" fill="white"/>
<path d="M157 192.7C157 196 154.3 198.7 151 198.7H24.6C21.3 198.7 18.6 196 18.6 192.7V180.7C18.6 177.4 21.3 174.7 24.6 174.7H151C154.3 174.7 157 177.4 157 180.7V192.7Z" fill="#EC5564"/>
<path d="M276.5 212.4C268.6 209.5 261.5 204.7 255.9 198.6H24.6C18 198.6 12.6 204 12.6 210.6C12.6 217.2 18 222.6 24.6 222.6H263.2C267.1 218.7 271.6 215.2 276.5 212.4Z" fill="#965353"/>
<path d="M270.8 114.2C256 103.4 246.4 85.8999 246.4 66.1999C246.4 62.6999 246.7 59.3999 247.3 56.0999C223.6 39.9999 191.9 30.2 156.9 30.2C83.8 30.2 24.5 73.3 24.5 126.5H255.1C259.5 121.5 264.8 117.3 270.8 114.2Z" fill="#F4BE8E"/>
<path d="M250.2 133.2L234.6 126.8C234.6 126.8 234.6 126.8 234.5 126.8C233.8 126.5 233 126.3 232.2 126.3C231.4 126.3 230.6 126.5 229.9 126.8C229.9 126.8 229.9 126.8 229.8 126.8L202.1 138.2L174.4 126.8C173.7 126.5 172.9 126.3 172.1 126.3C171.3 126.3 170.5 126.5 169.8 126.8L142 138.2L114.3 126.8C114.3 126.8 114.3 126.8 114.2 126.8C113.5 126.5 112.7 126.3 111.9 126.3C111.1 126.3 110.3 126.5 109.6 126.8C109.6 126.8 109.6 126.8 109.5 126.8L81.8 138.2L54.1 126.8C53.4 126.5 52.6 126.3 51.8 126.3C51 126.3 50.2001 126.5 49.5 126.8L19.5 139.2C17.3 140.1 15.8 142.3 15.8 144.8C15.8 148.1 18.5 150.8 21.8 150.8C22.6 150.8 23.4 150.6 24.1 150.3C24.1 150.3 24.1 150.3 24.2 150.3L51.9001 138.9L79.6 150.3C79.6 150.3 79.6 150.3 79.7 150.3C80.4 150.6 81.2 150.8 82 150.8C82.8 150.8 83.6001 150.6 84.3 150.3C84.3 150.3 84.3 150.3 84.4 150.3L112.1 138.9L139.8 150.3C139.8 150.3 139.8 150.3 139.9 150.3C140.6 150.6 141.4 150.8 142.2 150.8C143 150.8 143.8 150.6 144.5 150.3C144.5 150.3 144.5 150.3 144.6 150.3L172.3 138.9L200 150.3C200 150.3 200 150.3 200.1 150.3C200.8 150.6 201.6 150.8 202.4 150.8C203.2 150.8 204 150.6 204.7 150.3C204.7 150.3 204.7 150.3 204.8 150.3L232.5 138.9L245.1 144.1C246.2 140.1 248 136.5 250.2 133.2Z" fill="#9ED36A"/>
<path d="M263.2 222.7H24.6V252.8C24.6 256.1 27.3 258.8 30.6 258.8H246.5C247.8 244.8 253.9 232.2 263.2 222.7Z" fill="#F4BE8E"/>
<path d="M241.6 162.2C241.6 158.2 242.1 154.3 242.9 150.5H24.5C17.9 150.5 12.5 155.9 12.5 162.5C12.5 169.1 17.9 174.5 24.5 174.5H243.1C242.1 170.6 241.6 166.5 241.6 162.2Z" fill="#965353"/>
<path d="M243.1 174.6H163.1C159.8 174.6 157.1 177.3 157.1 180.6V192.6C157.1 195.9 159.8 198.6 163.1 198.6H256C249.7 192 245.2 183.8 243.1 174.6Z" fill="#EC5564"/>
<path d="M243.1 174.6H36.7L157 246.8L249.9 190.9C246.8 186 244.5 180.5 243.1 174.6Z" fill="#FECD57"/>
<path d="M132.8 198.7C132.8 202 130.1 204.7 126.8 204.7C123.5 204.7 120.8 202 120.8 198.7C120.8 195.4 123.5 192.7 126.8 192.7C130.1 192.7 132.8 195.3 132.8 198.7Z" fill="#F5BA45"/>
<path d="M187.1 204.7C187.1 208 184.4 210.7 181.1 210.7C177.8 210.7 175.1 208 175.1 204.7C175.1 201.4 177.8 198.7 181.1 198.7C184.4 198.7 187.1 201.4 187.1 204.7Z" fill="#F5BA45"/>
<path d="M114.9 66.2999C114.9 69.5999 112.2 72.2999 108.9 72.2999C105.6 72.2999 102.9 69.5999 102.9 66.2999C102.9 62.9999 105.6 60.2999 108.9 60.2999C112.2 60.2999 114.9 62.8999 114.9 66.2999Z" fill="#EAAD7A"/>
<path d="M163 66.2999C163 69.5999 160.3 72.2999 157 72.2999C153.7 72.2999 151 69.5999 151 66.2999C151 62.9999 153.7 60.2999 157 60.2999C160.3 60.2999 163 62.8999 163 66.2999Z" fill="#EAAD7A"/>
<path d="M211.2 66.2999C211.2 69.5999 208.5 72.2999 205.2 72.2999C201.9 72.2999 199.2 69.5999 199.2 66.2999C199.2 62.9999 201.9 60.2999 205.2 60.2999C208.5 60.2999 211.2 62.8999 211.2 66.2999Z" fill="#EAAD7A"/>
<path d="M90.7 96.3999C90.7 99.6999 88 102.4 84.7 102.4C81.4 102.4 78.7 99.6999 78.7 96.3999C78.7 93.0999 81.4 90.3999 84.7 90.3999C88 90.2999 90.7 92.9999 90.7 96.3999Z" fill="#EAAD7A"/>
<path d="M138.8 96.3999C138.8 99.6999 136.1 102.4 132.8 102.4C129.5 102.4 126.8 99.6999 126.8 96.3999C126.8 93.0999 129.5 90.3999 132.8 90.3999C136.1 90.2999 138.8 92.9999 138.8 96.3999Z" fill="#EAAD7A"/>
<path d="M187 96.3999C187 99.6999 184.3 102.4 181 102.4C177.7 102.4 175 99.6999 175 96.3999C175 93.0999 177.7 90.3999 181 90.3999C184.3 90.2999 187 92.9999 187 96.3999Z" fill="#EAAD7A"/>
<path d="M235.3 96.3999C235.3 99.6999 232.6 102.4 229.3 102.4C226 102.4 223.3 99.6999 223.3 96.3999C223.3 93.0999 226 90.3999 229.3 90.3999C232.6 90.2999 235.3 92.9999 235.3 96.3999Z" fill="#EAAD7A"/>
</svg>
